<svg width="130" height="130" viewBox="0 0 130 130" fill="none" xmlns="http://www.w3.org/2000/svg">
<path d="M129.97 65.19C129.97 80.9 124.38 95.31 115.07 106.53C111.22 111.17 106.73 115.27 101.74 118.69C100.87 119.29 99.9799 119.87 99.0699 120.42C89.2499 126.47 77.6999 129.96 65.3299 129.99H65.1699C64.5499 129.99 63.9399 129.98 63.3299 129.96C50.8899 129.62 39.3199 125.76 29.5899 119.34C28.7599 118.8 27.9399 118.24 27.1399 117.65C22.1899 114.07 17.7799 109.79 14.0299 104.97C5.46988 93.99 0.379883 80.18 0.379883 65.19C0.379883 29.41 29.3899 0.400024 65.1699 0.400024C100.96 0.400024 129.97 29.41 129.97 65.19Z" fill="#D7EAF1"/>
<path d="M115.07 106.53C111.22 111.17 106.73 115.27 101.74 118.69C100.87 119.29 99.9803 119.87 99.0703 120.42C89.2503 126.47 77.7003 129.96 65.3303 129.99H65.1703C64.5503 129.99 63.9403 129.98 63.3303 129.96C50.8903 129.62 39.3203 125.76 29.5903 119.34C28.7603 118.8 27.9403 118.24 27.1403 117.65C22.1903 114.07 17.7803 109.79 14.0303 104.97C15.8703 99.4301 20.3703 95.0801 26.1103 93.5001L40.7503 89.4601L41.6403 89.2101L46.6503 87.8201L49.2903 87.0901L52.0803 86.3201L52.5603 83.6501V83.6401L54.2703 74.0201L54.5303 72.55L55.2903 68.3201L64.3303 71.86L73.3703 68.3201L74.1303 72.55L75.6803 81.2801L76.1003 83.6501V83.6601L76.5803 86.3201L79.3703 87.0901L82.0103 87.8201L87.0203 89.2101L87.9103 89.4601L102.55 93.5001C108.82 95.2301 113.61 100.25 115.07 106.53Z" fill="#1DACAC"/>
<path d="M65.3301 111.16V129.99H65.1701C64.5501 129.99 63.9401 129.98 63.3301 129.96V111.16C63.3301 110.6 63.7801 110.16 64.3301 110.16C64.8801 110.16 65.3301 110.6 65.3301 111.16Z" fill="#007289"/>
<path d="M76.5798 86.32L64.3298 85.384L52.0798 86.32L50.5068 88.987L54.2478 99.475L64.3298 116.472L74.4118 99.475L78.1528 88.987L76.5798 86.32Z" fill="#01243A"/>
<path d="M76.5801 86.3201C76.5801 86.3201 75.3201 93.6701 64.3301 93.6701C53.3401 93.6701 52.0801 86.3201 52.0801 86.3201L54.2701 74.0201L55.2901 68.3201L64.3301 71.86L73.3701 68.3201L75.6801 81.2801L76.5801 86.3201Z" fill="#F69779"/>
<path d="M75.6805 81.2801C72.3505 82.4801 69.7405 82.4801 69.7405 82.4801C69.7405 82.4801 60.1405 82.4801 54.2705 74.0201L55.2905 68.3201L64.3305 71.86L73.3705 68.3201L75.6805 81.2801Z" fill="#F37A67"/>
<path d="M83.4191 90.924L81.1531 95.569L64.3301 116.472C64.3301 116.472 66.4001 102.748 72.0741 96.414C77.7481 90.08 75.9241 82.479 75.9241 82.479C75.9241 82.479 81.9491 85.39 83.4191 90.924Z" fill="#007289"/>
<path d="M75.9248 82.479C75.9248 82.479 80.9268 85.857 81.1538 95.569L90.9138 97.892C90.9138 97.892 88.3998 81.423 75.9248 82.479Z" fill="#69C7C2"/>
<path d="M45.2412 90.924L47.5072 95.569L64.3312 116.471C64.3312 116.471 62.2612 102.747 56.5872 96.413C50.9132 90.079 52.7372 82.478 52.7372 82.478C52.7372 82.478 46.7112 85.39 45.2412 90.924Z" fill="#007289"/>
<path d="M52.7351 82.479C52.7351 82.479 47.7331 85.857 47.5061 95.569L37.7461 97.892C37.7461 97.892 40.2601 81.423 52.7351 82.479Z" fill="#69C7C2"/>
<path d="M84.0793 29.073C81.7673 24.737 77.3443 22.338 73.2703 21.012C68.9713 19.612 64.4023 19.256 59.9633 19.933C58.9763 18.364 57.6153 18.036 56.5333 18.253C54.9773 18.564 55.3043 21.096 55.3043 21.096C55.3043 21.096 54.0433 18.668 52.5913 18.979C51.1393 19.29 50.9463 21.896 50.9463 21.896C50.9463 21.896 49.3743 20.431 47.9213 21.365C46.9623 21.981 47.2083 22.998 47.7743 25.128C46.5173 26.224 45.4113 27.52 44.5823 29.073C40.4023 37.077 41.1143 49.529 41.1143 49.529C43.7973 65.444 49.7333 68.32 49.7333 68.32H64.3303H78.9283C78.9283 68.32 84.8653 65.444 87.5473 49.529C87.5473 49.529 88.2593 37.078 84.0793 29.073Z" fill="#E44424"/>
<path d="M88.7579 48.775C88.6369 47.977 88.3409 47.167 87.7319 46.637C87.1829 46.159 86.4269 45.962 85.6999 45.993C84.9729 46.024 84.2689 46.2671 83.6139 46.5841C83.6139 46.5841 83.5499 28.149 77.0149 27.934C72.7299 27.72 70.8229 29.005 64.3309 29.005C57.8379 29.005 55.9319 27.719 51.6469 27.934C45.1119 28.148 45.0479 46.5841 45.0479 46.5841C44.3929 46.2671 43.6889 46.024 42.9619 45.993C42.2349 45.962 41.4789 46.159 40.9299 46.637C40.3209 47.166 40.0259 47.977 39.9039 48.775C39.6599 50.377 40.0439 52.065 40.9549 53.404C41.8659 54.743 43.2119 55.75 44.7909 56.111C47.5749 75.61 64.3299 75.61 64.3299 75.61C64.3299 75.61 81.0849 75.61 83.8709 56.112C85.4499 55.751 86.7959 54.744 87.7069 53.405C88.6179 52.065 89.0009 50.376 88.7579 48.775Z" fill="#F69779"/>
<path d="M101.74 118.69C100.87 119.29 99.9803 119.87 99.0703 120.42V105.87L101.74 118.69Z" fill="#007289"/>
<path d="M29.5906 105.87V119.34C28.7606 118.8 27.9406 118.24 27.1406 117.65L29.5906 105.87Z" fill="#007289"/>
<path d="M63.3916 45.73V57.171H65.3306C68.6536 57.171 64.0086 47.045 63.3916 45.73Z" fill="#F37A67"/>
<path d="M77.4887 41.273C74.8087 39.949 71.8297 39.753 69.0367 40.863C67.8537 41.334 68.3687 43.269 69.5687 42.792C71.8577 41.882 74.2547 41.901 76.4797 43C77.6317 43.569 78.6457 41.844 77.4887 41.273Z" fill="#E44424"/>
<path d="M73.1897 47.616C74.2313 47.616 75.0757 46.7716 75.0757 45.73C75.0757 44.6884 74.2313 43.844 73.1897 43.844C72.1481 43.844 71.3037 44.6884 71.3037 45.73C71.3037 46.7716 72.1481 47.616 73.1897 47.616Z" fill="#051733"/>
<path d="M51.1724 41.273C53.8524 39.949 56.8314 39.753 59.6244 40.863C60.8074 41.334 60.2924 43.269 59.0924 42.792C56.8034 41.882 54.4064 41.901 52.1814 43C51.0294 43.569 50.0164 41.844 51.1724 41.273Z" fill="#E44424"/>
<path d="M55.471 47.616C56.5126 47.616 57.357 46.7716 57.357 45.73C57.357 44.6884 56.5126 43.844 55.471 43.844C54.4294 43.844 53.585 44.6884 53.585 45.73C53.585 46.7716 54.4294 47.616 55.471 47.616Z" fill="#051733"/>
<path d="M58.1855 61.845C58.8505 64.327 61.3456 66.175 64.3316 66.175C67.3166 66.175 69.8125 64.327 70.4765 61.845H58.1855Z" fill="white"/>
</svg>
