<svg width="130" height="130" viewBox="0 0 130 130" fill="none" xmlns="http://www.w3.org/2000/svg">
<path d="M129.97 65C129.97 80.98 124.19 95.6 114.61 106.89C110.59 111.64 105.89 115.8 100.66 119.22C99.2799 120.13 97.8599 120.99 96.3999 121.79C87.1399 126.9 76.4899 129.8 65.1699 129.8C53.1599 129.8 41.8999 126.53 32.2599 120.83C30.8999 120.03 29.5699 119.18 28.2799 118.27C23.1199 114.7 18.5099 110.39 14.5899 105.5C5.69988 94.41 0.379883 80.33 0.379883 65C0.379883 29.21 29.3899 0.200012 65.1699 0.200012C100.96 0.200012 129.97 29.21 129.97 65Z" fill="#D7EAF1"/>
<path d="M114.61 106.89C110.59 111.64 105.89 115.8 100.66 119.22C99.2799 120.13 97.8598 120.99 96.3998 121.79C87.1398 126.9 76.4898 129.8 65.1698 129.8C53.1598 129.8 41.8998 126.53 32.2598 120.83C30.8998 120.03 29.5698 119.18 28.2798 118.27C23.1198 114.7 18.5098 110.39 14.5898 105.5C16.6898 100.67 20.8798 96.94 26.1098 95.5L41.6398 91.21L46.4598 89.88L50.7098 88.7L52.0798 88.32L54.1098 76.92L54.5298 74.55L55.2798 70.37L55.2898 70.32L55.3298 70.34L64.3298 73.86L73.3298 70.34L73.3698 70.32L73.3798 70.37L74.1298 74.55L75.6398 83.02L76.5798 88.32L77.9498 88.7L82.1998 89.88L87.0198 91.21L102.55 95.5C108.27 97.08 112.75 101.39 114.61 106.89Z" fill="#A1CC36"/>
<path d="M77.95 88.7C76.78 95.16 71.13 100.05 64.33 100.05C57.53 100.05 51.88 95.16 50.71 88.7L52.08 88.32L54.11 76.92L55.28 70.37L55.29 70.32L55.33 70.34L64.33 73.86L73.33 70.34L73.37 70.32L73.38 70.37L75.64 83.02L76.58 88.32L77.95 88.7Z" fill="#F69779"/>
<path d="M82.2 89.88C80.5 98.18 73.14 104.44 64.33 104.44C55.52 104.44 48.16 98.18 46.46 89.88L50.71 88.7C51.88 95.16 57.53 100.05 64.33 100.05C71.13 100.05 76.78 95.16 77.95 88.7L82.2 89.88Z" fill="#718F26"/>
<path d="M75.6394 83.02C71.9594 84.51 68.9494 84.51 68.9494 84.51C68.9494 84.51 60.0194 84.51 54.1094 76.92L55.2794 70.37L55.2894 70.32L55.3294 70.34L64.3294 73.86L73.3294 70.34L73.3694 70.32L73.3794 70.37L75.6394 83.02Z" fill="#F37A67"/>
<path d="M87.2728 51.5291C87.2728 51.5291 86.6258 67.3331 77.6758 68.6671V51.5291H87.2728Z" fill="#051733"/>
<path d="M41.3867 51.5291C41.3867 51.5291 42.0337 67.3331 50.9837 68.6671V51.5291H41.3867Z" fill="#051733"/>
<path d="M86.2454 29.911C85.5464 29.228 83.7494 30.495 83.7494 30.495C83.7494 30.495 84.5484 27.399 83.7494 26.799C82.9504 26.2 81.5354 27.714 81.5354 27.714C81.5354 27.714 82.1524 25.002 81.0534 24.502C79.9554 24.003 78.6194 25.445 78.6194 25.445C78.8804 24.291 78.6574 23.205 77.9504 22.805C76.3444 22.306 75.1284 23.69 75.1284 23.69C75.1284 23.69 75.1634 21.707 73.7654 21.407C72.3674 21.107 71.2374 22.432 71.2374 22.432C71.2374 22.432 70.7704 20.209 69.4714 19.91C68.1734 19.611 67.3744 21.596 67.3744 21.596C66.9754 19.388 64.3294 18.213 64.3294 18.213C64.3294 18.213 61.6834 19.388 61.2844 21.596C61.2844 21.596 60.4854 19.611 59.1874 19.91C57.8894 20.209 57.4214 22.432 57.4214 22.432C57.4214 22.432 56.2914 21.108 54.8934 21.407C53.4954 21.706 53.5304 23.69 53.5304 23.69C53.5304 23.69 52.3144 22.306 50.7084 22.805C50.0014 23.204 49.7774 24.291 50.0394 25.445C50.0394 25.445 48.7034 24.003 47.6054 24.502C46.5074 25.001 47.1234 27.714 47.1234 27.714C47.1234 27.714 45.7084 26.2 44.9094 26.799C44.1104 27.398 44.9094 30.495 44.9094 30.495C44.9094 30.495 43.1124 29.228 42.4134 29.911C41.7144 30.594 40.0094 42.011 41.1114 51.529L45.4694 56.154L64.3284 53.761L83.1874 56.154L87.5454 51.529C88.6504 42.011 86.9444 30.594 86.2454 29.911Z" fill="#051733"/>
<path d="M88.7579 50.775C88.6369 49.977 88.3409 49.167 87.7319 48.638C87.1829 48.161 86.4269 47.963 85.6999 47.994C84.9729 48.025 84.2689 48.268 83.6139 48.585C83.6139 48.585 83.5499 30.15 77.0149 29.935C72.7299 29.721 70.8229 31.006 64.3309 31.006C57.8379 31.006 55.9319 29.72 51.6469 29.935C45.1119 30.149 45.0479 48.585 45.0479 48.585C44.3929 48.268 43.6889 48.025 42.9619 47.994C42.2349 47.963 41.4789 48.16 40.9299 48.638C40.3209 49.167 40.0259 49.978 39.9039 50.775C39.6599 52.377 40.0439 54.065 40.9549 55.404C41.8659 56.743 43.2119 57.75 44.7909 58.111C47.5749 77.61 64.3299 77.61 64.3299 77.61C64.3299 77.61 81.0849 77.61 83.8709 58.112C85.4499 57.751 86.7959 56.744 87.7069 55.405C88.6179 54.066 89.0009 52.376 88.7579 50.775Z" fill="#F69779"/>
<path d="M64.3302 57.741C53.1812 57.741 51.6312 62.63 52.4292 63.398C53.2272 64.165 56.4202 62.331 56.4202 62.331C56.4202 62.331 56.8192 63.528 57.7172 63.386C58.6152 63.243 59.2142 62.131 59.2142 62.131C59.2142 62.131 59.6132 63.229 60.4112 63.373C61.2092 63.518 61.8082 62.33 61.8082 62.33C61.8082 62.33 62.7062 63.627 63.4852 63.328C64.2642 63.029 64.3292 61.731 64.3292 61.731C64.3292 61.731 64.3942 63.028 65.1732 63.328C65.9522 63.627 66.8502 62.33 66.8502 62.33C66.8502 62.33 67.4492 63.517 68.2472 63.373C69.0452 63.228 69.4442 62.131 69.4442 62.131C69.4442 62.131 70.0432 63.243 70.9412 63.386C71.8392 63.529 72.2382 62.331 72.2382 62.331C72.2382 62.331 75.4312 64.165 76.2292 63.398C77.0292 62.631 75.4792 57.741 64.3302 57.741Z" fill="#051733"/>
<path d="M63.3906 45.936V57.377H65.3296C68.6526 57.376 64.0076 47.25 63.3906 45.936Z" fill="#F37A67"/>
<path d="M77.4877 41.478C74.8077 40.154 71.8287 39.958 69.0357 41.068C67.8527 41.539 68.3677 43.4741 69.5677 42.9961C71.8567 42.0861 74.2537 42.105 76.4787 43.204C77.6307 43.774 78.6447 42.049 77.4877 41.478Z" fill="#051733"/>
<path d="M73.1887 47.8221C74.2303 47.8221 75.0747 46.9777 75.0747 45.9361C75.0747 44.8944 74.2303 44.05 73.1887 44.05C72.1471 44.05 71.3027 44.8944 71.3027 45.9361C71.3027 46.9777 72.1471 47.8221 73.1887 47.8221Z" fill="#051733"/>
<path d="M51.1714 41.478C53.8514 40.154 56.8304 39.958 59.6234 41.068C60.8064 41.539 60.2914 43.4741 59.0914 42.9961C56.8024 42.0861 54.4054 42.105 52.1804 43.204C51.0284 43.774 50.0154 42.049 51.1714 41.478Z" fill="#051733"/>
<path d="M55.47 47.8221C56.5116 47.8221 57.356 46.9777 57.356 45.9361C57.356 44.8944 56.5116 44.05 55.47 44.05C54.4284 44.05 53.584 44.8944 53.584 45.9361C53.584 46.9777 54.4284 47.8221 55.47 47.8221Z" fill="#051733"/>
<path d="M58.1846 64.845C58.8496 67.327 61.3446 69.175 64.3306 69.175C67.3156 69.175 69.8116 67.327 70.4756 64.845H58.1846Z" fill="white"/>
<path d="M100.66 119.22C99.2804 120.13 97.8604 120.99 96.4004 121.79V104.44L100.66 119.22Z" fill="#718F26"/>
<path d="M32.2603 104.44V120.83C30.9003 120.03 29.5703 119.18 28.2803 118.27L32.2603 104.44Z" fill="#718F26"/>
</svg>
