<svg width="130" height="130" viewBox="0 0 130 130" fill="none" xmlns="http://www.w3.org/2000/svg">
<path d="M129.62 64.81C129.62 80.2 124.25 94.34 115.29 105.45C111.47 110.18 107 114.37 102.02 117.86C100.29 119.08 98.5103 120.21 96.6603 121.25C87.2603 126.57 76.4003 129.6 64.8303 129.6C53.2603 129.6 42.4003 126.57 33.0003 121.25C31.1503 120.21 29.3603 119.08 27.6403 117.87C22.6503 114.37 18.1803 110.19 14.3703 105.45C5.40027 94.34 0.0302734 80.2 0.0302734 64.81C0.0302734 29.02 29.0403 0.0100098 64.8303 0.0100098C100.61 0.0100098 129.62 29.02 129.62 64.81Z" fill="#D7EAF1"/>
<path d="M115.29 105.45C111.47 110.18 107 114.37 102.02 117.86C100.29 119.08 98.5101 120.21 96.6601 121.25C87.2601 126.57 76.4001 129.6 64.8301 129.6C53.2601 129.6 42.4001 126.57 33.0001 121.25C31.1501 120.21 29.3601 119.08 27.6401 117.87C22.6501 114.37 18.1801 110.19 14.3701 105.45C16.1101 99.68 20.7001 95.13 26.6101 93.5L42.1401 89.21L52.5801 86.32L54.6801 74.56L55.0301 72.55L55.7901 68.32L63.3901 71.3L64.8301 71.86L66.2701 71.3L73.8701 68.32L74.6301 72.55L76.3401 82.16L77.0801 86.32L87.5201 89.21L103.05 93.5C108.96 95.13 113.55 99.68 115.29 105.45Z" fill="#FFA33B"/>
<path d="M87.5206 89.21C85.7606 95.78 80.4306 108.69 64.8306 115.33C49.2306 108.69 43.9006 95.78 42.1406 89.21L52.5806 86.32L54.6806 74.56L55.7906 68.32L64.8306 71.86L73.8706 68.32L76.3406 82.16L77.0806 86.32L87.5206 89.21Z" fill="#86201B"/>
<path d="M76.3397 82.16C73.0097 83.36 70.3897 83.36 70.3897 83.36C70.3897 83.36 60.5297 83.36 54.6797 74.56L55.7897 68.32L64.8297 71.86L73.8697 68.32L76.3397 82.16Z" fill="#611714"/>
<path d="M84.5793 29.073C82.2673 24.737 77.8443 22.338 73.7703 21.011C67.9743 19.124 61.6863 19.124 55.8913 21.011C51.8173 22.337 47.3943 24.737 45.0823 29.073C40.9023 37.077 41.6143 49.529 41.6143 49.529L45.9723 54.154L64.8313 51.761L83.6903 54.154L88.0483 49.529C88.0483 49.529 88.7593 37.078 84.5793 29.073Z" fill="#051733"/>
<path d="M89.2579 48.775C89.1369 47.977 88.8409 47.167 88.2319 46.637C87.6829 46.159 86.9269 45.962 86.1999 45.993C85.4729 46.024 84.7689 46.267 84.1139 46.584C84.1139 46.584 84.0499 28.149 77.5149 27.934C73.2299 27.72 71.3229 29.005 64.8309 29.005C58.3389 29.005 56.4319 27.719 52.1469 27.934C45.6119 28.148 45.5479 46.584 45.5479 46.584C44.8929 46.267 44.1889 46.024 43.4619 45.993C42.7349 45.962 41.9789 46.159 41.4299 46.637C40.8209 47.166 40.5259 47.977 40.4039 48.775C40.1599 50.376 40.5439 52.065 41.4549 53.404C42.3659 54.743 43.7119 55.75 45.2909 56.111C48.0759 75.609 64.8319 75.609 64.8319 75.609C64.8319 75.609 81.5869 75.609 84.3729 56.111C85.9519 55.75 87.2979 54.743 88.2089 53.404C89.1179 52.065 89.5009 50.376 89.2579 48.775Z" fill="#86201B"/>
<path d="M71.9666 71.237C71.9666 71.237 69.3706 71.146 67.5946 73.559C67.5946 73.559 67.3476 71.1 64.8306 70.736C62.3126 71.1 62.0666 73.559 62.0666 73.559C60.2906 71.146 57.6956 71.237 57.6956 71.237C57.0126 77.339 64.8316 77.612 64.8316 77.612C64.8316 77.612 72.6496 77.339 71.9666 71.237Z" fill="#051733"/>
<path d="M63.8916 46.566V58.007H65.8306C69.1546 58.007 64.5086 47.881 63.8916 46.566Z" fill="#611714"/>
<path d="M77.9887 42.109C75.3087 40.785 72.3297 40.589 69.5367 41.699C68.3537 42.17 68.8687 44.105 70.0687 43.628C72.3577 42.718 74.7547 42.737 76.9797 43.836C78.1317 44.405 79.1457 42.68 77.9887 42.109Z" fill="#051733"/>
<path d="M73.6897 48.452C74.7313 48.452 75.5757 47.6076 75.5757 46.566C75.5757 45.5244 74.7313 44.68 73.6897 44.68C72.6481 44.68 71.8037 45.5244 71.8037 46.566C71.8037 47.6076 72.6481 48.452 73.6897 48.452Z" fill="#051733"/>
<path d="M51.6724 42.109C54.3524 40.785 57.3314 40.589 60.1244 41.699C61.3074 42.17 60.7924 44.105 59.5924 43.628C57.3034 42.718 54.9064 42.737 52.6814 43.836C51.5294 44.405 50.5164 42.68 51.6724 42.109Z" fill="#051733"/>
<path d="M55.971 48.452C57.0126 48.452 57.857 47.6076 57.857 46.566C57.857 45.5244 57.0126 44.68 55.971 44.68C54.9294 44.68 54.085 45.5244 54.085 46.566C54.085 47.6076 54.9294 48.452 55.971 48.452Z" fill="#051733"/>
<path d="M58.6846 63.476C59.3496 65.958 61.8446 67.806 64.8306 67.806C67.8166 67.806 70.3116 65.958 70.9766 63.476H58.6846Z" fill="white"/>
<path d="M102.02 117.86C100.29 119.08 98.5102 120.21 96.6602 121.25L100 104.77L102.02 117.86Z" fill="#FF863B"/>
<path d="M33.0006 121.25C31.1506 120.21 29.3606 119.08 27.6406 117.87L29.6606 104.77L33.0006 121.25Z" fill="#FF863B"/>
</svg>
