<svg width="130" height="130" viewBox="0 0 130 130" fill="none" xmlns="http://www.w3.org/2000/svg">
<path d="M129.8 64.81C129.8 83.14 122.18 99.7 109.94 111.48C109.88 111.55 109.81 111.61 109.75 111.67C105.38 115.84 100.44 119.41 95.0402 122.23C94.0902 122.73 93.1302 123.21 92.1502 123.66C83.9002 127.47 74.7002 129.6 65.0002 129.6C55.3002 129.6 46.1002 127.47 37.8502 123.66C36.8702 123.21 35.9102 122.73 34.9602 122.23C29.5602 119.41 24.6202 115.84 20.2502 111.67C20.1902 111.61 20.1202 111.55 20.0602 111.48C7.8202 99.7 0.200195 83.14 0.200195 64.81C0.200195 29.02 29.2102 0.0100098 65.0002 0.0100098C100.79 0.0100098 129.8 29.02 129.8 64.81Z" fill="#D7EAF1"/>
<path d="M91.168 41.481C91.168 41.481 91.466 30.328 81.512 22.691C79.8 21.21 77.805 20.116 75.8 19.304C75.77 19.29 75.742 19.275 75.711 19.262L75.693 19.258C75.106 19.024 74.52 18.806 73.941 18.618C68.145 16.731 61.857 16.731 56.062 18.618C55.483 18.807 54.896 19.024 54.31 19.258L54.292 19.262C54.261 19.276 54.234 19.29 54.203 19.304C52.198 20.116 50.203 21.21 48.491 22.691C38.536 30.327 38.835 41.481 38.835 41.481L31.001 114.33H65.001H99.001L91.168 41.481Z" fill="#051733"/>
<path d="M110.071 111.67H109.751C105.381 115.84 100.441 119.41 95.0407 122.23C94.0907 122.73 93.1307 123.21 92.1507 123.66C83.9007 127.47 74.7007 129.6 65.0007 129.6C55.3007 129.6 46.1007 127.47 37.8507 123.66C36.8707 123.21 35.9107 122.73 34.9607 122.23C29.5607 119.41 24.6207 115.84 20.2507 111.67H19.9307C19.9707 111.61 20.0207 111.54 20.0607 111.48C23.1107 106.98 27.3807 103.4 32.4107 101.2C32.8207 101.02 33.2307 100.85 33.6407 100.69L36.8307 99.46L39.6107 98.39C39.6307 98.38 39.6507 98.37 39.6707 98.37C47.8007 95.22 53.7707 88.16 55.5507 79.62L56.0407 77.27L56.8307 73.46L57.8907 68.32H72.1107L73.1707 73.46L74.4507 79.62C74.7507 81.04 75.1607 82.43 75.6807 83.76C78.2807 90.41 83.5607 95.75 90.3307 98.37C90.3507 98.37 90.3707 98.38 90.3907 98.39L93.1707 99.46L96.3607 100.69C96.7707 100.85 97.1807 101.02 97.5907 101.2C102.621 103.4 106.891 106.98 109.941 111.48C109.981 111.54 110.031 111.61 110.071 111.67Z" fill="#F69779"/>
<path d="M75.681 83.76C72.821 84.64 70.691 84.64 70.691 84.64C70.691 84.64 61.931 84.64 56.041 77.27L57.891 68.32H72.111L74.451 79.62C74.751 81.04 75.161 82.43 75.681 83.76Z" fill="#F37A67"/>
<path d="M88.3811 53.4C87.4711 54.74 86.1211 55.75 84.5411 56.11C81.7611 75.61 65.0011 75.61 65.0011 75.61C65.0011 75.61 53.6911 75.61 48.1211 64.8C48.1411 61.21 48.7311 57.62 49.8711 54.21C50.7811 51.5 52.0211 48.89 52.7311 46.11C53.3411 43.71 53.6811 41.23 53.8111 38.73C53.8611 37.9 53.8811 37.06 53.8811 36.23C53.8811 36.04 53.8811 35.85 53.8911 35.66C53.9211 34.92 54.0211 34.19 54.1711 33.47C54.4611 33.05 59.5611 25.77 69.8611 25.11C69.8611 25.11 76.7711 25.21 82.1711 31.87C82.2911 32.15 82.3811 32.42 82.4711 32.68C83.0211 34.35 83.0611 35.52 83.0611 35.52C83.0911 35.65 83.1211 35.78 83.1411 35.91C84.2611 40.97 84.2811 46.59 84.2811 46.59C84.9411 46.27 85.6411 46.02 86.3711 45.99C87.1011 45.96 87.8511 46.16 88.4011 46.64C89.0111 47.17 89.3111 47.98 89.4311 48.77C89.6711 50.38 89.2911 52.06 88.3811 53.4Z" fill="#F69779"/>
<path d="M83.1406 35.91C78.9106 38.6 71.8206 39.85 64.7706 39.85C60.8306 39.85 57.0605 39.46 53.8105 38.73C53.8605 37.9 53.8806 37.06 53.8806 36.23C53.8806 36.04 53.8805 35.85 53.8905 35.66C56.9705 36.41 60.7006 36.85 64.7706 36.85C72.8106 36.85 79.5506 35.16 82.4706 32.68C83.0206 34.35 83.0605 35.52 83.0605 35.52C83.0905 35.65 83.1206 35.78 83.1406 35.91Z" fill="#E30081"/>
<path d="M93.1711 99.46L90.7911 111.67L90.1511 114.93C90.0111 115.65 89.3811 116.14 88.6811 116.14C88.5811 116.14 88.4911 116.13 88.3911 116.12C87.5811 115.96 87.0511 115.17 87.2111 114.36L87.7311 111.72L90.3311 98.37C90.3511 98.37 90.3711 98.38 90.3911 98.39L93.1711 99.46Z" fill="#E30081"/>
<path d="M41.6111 116.12C41.5111 116.13 41.4211 116.14 41.3211 116.14C40.6211 116.14 39.9911 115.65 39.8511 114.93L39.2111 111.67L36.8311 99.46L39.6111 98.39C39.6311 98.38 39.6511 98.37 39.6711 98.37L42.2711 111.72L42.791 114.36C42.951 115.17 42.4211 115.96 41.6111 116.12Z" fill="#E30081"/>
<path d="M109.751 111.67C105.381 115.84 100.441 119.41 95.041 122.23C94.091 122.73 93.131 123.21 92.151 123.66C83.901 127.47 74.701 129.6 65.001 129.6C55.301 129.6 46.101 127.47 37.851 123.66C36.871 123.21 35.911 122.73 34.961 122.23C29.561 119.41 24.621 115.84 20.251 111.67H41.041C41.451 111.67 41.861 111.69 42.271 111.72C44.221 111.85 46.141 112.32 47.981 113.01C49.451 113.57 51.021 114 52.591 114.33C58.821 115.66 65.001 115.43 65.001 115.43C65.001 115.43 71.181 115.66 77.411 114.33C78.981 114 80.551 113.57 82.021 113.01C83.861 112.32 85.781 111.85 87.731 111.72C88.141 111.69 88.551 111.67 88.961 111.67H109.751Z" fill="#E30081"/>
<path d="M95.0409 122.23C94.0909 122.73 93.1309 123.21 92.1509 123.66L91.6709 117.06L95.0409 122.23Z" fill="#A80060"/>
<path d="M38.3309 117.06L37.8509 123.66C36.8709 123.21 35.9109 122.73 34.9609 122.23L38.3309 117.06Z" fill="#A80060"/>
<path d="M64.0615 47.434V58.875H66.0005C69.3235 58.875 64.6785 48.749 64.0615 47.434Z" fill="#F37A67"/>
<path d="M78.1586 42.977C75.4786 41.653 72.5006 41.457 69.7066 42.567C68.5236 43.038 69.0386 44.973 70.2386 44.496C72.5276 43.586 74.9246 43.605 77.1496 44.704C78.3016 45.273 79.3146 43.548 78.1586 42.977Z" fill="#051733"/>
<path d="M75.7456 46.54C75.1366 45.484 73.8596 45.548 73.8596 45.548C72.8176 45.548 71.9736 46.392 71.9736 47.434C71.9736 48.476 72.8176 49.32 73.8596 49.32C74.0896 49.32 74.3067 49.273 74.5107 49.198L74.5116 49.203C74.5236 49.199 74.5326 49.192 74.5446 49.187C74.6056 49.163 74.6626 49.133 74.7206 49.103C76.3696 48.388 76.5457 46.557 76.5457 46.557C76.2167 46.835 75.7456 46.54 75.7456 46.54Z" fill="#051733"/>
<path d="M51.8423 42.977C54.5223 41.653 57.5013 41.457 60.2943 42.567C61.4773 43.038 60.9623 44.973 59.7623 44.496C57.4733 43.586 55.0763 43.605 52.8513 44.704C51.6993 45.273 50.6863 43.548 51.8423 42.977Z" fill="#051733"/>
<path d="M54.2551 46.54C54.8641 45.484 56.1411 45.548 56.1411 45.548C57.1831 45.548 58.0271 46.392 58.0271 47.434C58.0271 48.476 57.1831 49.32 56.1411 49.32C55.9111 49.32 55.6941 49.273 55.4901 49.198L55.4891 49.203C55.4771 49.199 55.4681 49.192 55.4561 49.187C55.3951 49.163 55.3381 49.133 55.2801 49.103C53.6311 48.388 53.4551 46.557 53.4551 46.557C53.7841 46.835 54.2551 46.54 54.2551 46.54Z" fill="#051733"/>
<path d="M58.8545 64.962C59.5195 67.444 62.0145 69.292 65.0005 69.292C67.9855 69.292 70.4815 67.444 71.1465 64.962H58.8545Z" fill="white"/>
</svg>
