<svg width="130" height="130" viewBox="0 0 130 130" fill="none" xmlns="http://www.w3.org/2000/svg">
<path d="M129.8 65C129.8 83.71 121.87 100.57 109.18 112.41C105.56 115.78 101.55 118.75 97.2202 121.24C96.5802 121.61 95.9302 121.96 95.2802 122.3C86.2402 127.09 75.9402 129.8 65.0002 129.8C54.0602 129.8 43.7602 127.09 34.7202 122.3C34.0702 121.96 33.4202 121.61 32.7802 121.24C28.4502 118.75 24.4402 115.78 20.8202 112.41C8.13021 100.57 0.200195 83.71 0.200195 65C0.200195 29.21 29.2102 0.200012 65.0002 0.200012C100.79 0.200012 129.8 29.21 129.8 65Z" fill="#D7EAF1"/>
<path d="M109.18 112.41C105.56 115.78 101.55 118.75 97.2203 121.24C96.5803 121.61 95.9303 121.96 95.2803 122.3C86.2403 127.09 75.9403 129.8 65.0003 129.8C54.0603 129.8 43.7603 127.09 34.7203 122.3C34.0703 121.96 33.4203 121.61 32.7803 121.24C28.4503 118.75 24.4403 115.78 20.8203 112.41C24.0603 108.06 28.4903 104.67 33.6403 102.69L39.2703 100.52L39.6103 100.39C42.6603 99.2201 45.4003 97.5001 47.7403 95.3501C49.8903 93.3801 51.7003 91.0501 53.0803 88.4601C54.2103 86.3401 55.0403 84.0401 55.5503 81.6201L56.0703 79.0901V79.08L56.8203 75.4601C56.8303 75.4601 56.8303 75.4601 56.8303 75.4601L57.8903 70.3201H72.1103L73.1703 75.4601L74.4503 81.6201C74.5403 82.0401 74.6403 82.4601 74.7503 82.8801C74.8403 83.2301 74.9403 83.5801 75.0503 83.9201C75.1003 84.1201 75.1703 84.3301 75.2503 84.5301C75.3203 84.7901 75.4103 85.0501 75.5203 85.3101C75.5403 85.3801 75.5603 85.4501 75.6003 85.5201C75.7303 85.8901 75.8703 86.2501 76.0303 86.6001C76.0403 86.6201 76.0503 86.6501 76.0603 86.6701C76.0603 86.6801 76.0703 86.6801 76.0703 86.6901C76.2703 87.1501 76.4803 87.61 76.7103 88.05C76.7703 88.19 76.8503 88.3301 76.9203 88.4601C77.0703 88.7401 77.2203 89.0101 77.3803 89.2801C77.4103 89.3301 77.4403 89.3901 77.4803 89.4501C77.7203 89.8601 77.9703 90.2701 78.2303 90.6601L78.2403 90.6701C78.5003 91.0501 78.7603 91.4301 79.0403 91.7901C79.0903 91.8601 79.1403 91.9301 79.1903 91.9901C79.4403 92.3201 79.7003 92.6401 79.9603 92.9501C80.5303 93.6301 81.1403 94.2801 81.7803 94.8901C82.0103 95.1201 82.2503 95.34 82.4903 95.55C82.7603 95.8 83.0303 96.0301 83.3103 96.2601C85.4103 97.9901 87.7903 99.3901 90.3903 100.39L90.7303 100.52L96.3603 102.69C101.51 104.67 105.94 108.06 109.18 112.41Z" fill="#662D8E"/>
<path d="M83.3102 96.2601C69.9202 106.23 65.0002 125.98 65.0002 125.98C62.8802 115.48 53.5502 102.59 47.7402 95.3501C51.6602 91.7601 54.4302 86.9801 55.5502 81.6201L56.0702 79.08L57.8902 70.3201H72.1102L74.4502 81.6201C74.8202 83.3801 75.3602 85.0701 76.0602 86.6701C77.6902 90.4101 80.1802 93.6901 83.3102 96.2601Z" fill="#F69779"/>
<path d="M76.0603 86.6701C73.4003 87.4301 71.4703 87.4301 71.4703 87.4301C71.4703 87.4301 61.9503 87.43 56.0703 79.08L57.8903 70.3201H72.1103L74.4503 81.6201C74.8203 83.3801 75.3603 85.0701 76.0603 86.6701Z" fill="#F37A67"/>
<path d="M75.7696 19.578C75.7696 19.578 85.7116 18.9 89.9826 26.798H88.7466C88.7466 26.798 91.3106 29.207 92.0786 35.365L90.9266 34.026C90.9266 34.026 96.6856 61.466 81.7756 65.615L71.4736 22.515L75.7696 19.578Z" fill="#E44424"/>
<path d="M54.2299 19.578C54.2299 19.578 44.2879 18.9 40.0169 26.798H41.2529C41.2529 26.798 38.6889 29.207 37.9209 35.365L39.0729 34.026C39.0729 34.026 33.3139 61.466 48.2239 65.615L58.5259 22.515L54.2299 19.578Z" fill="#E44424"/>
<path d="M89.4279 50.775C89.3059 49.977 89.0109 49.167 88.4019 48.638C87.8529 48.161 87.0969 47.963 86.3699 47.994C85.6429 48.025 84.9389 48.268 84.2839 48.585C84.2839 48.585 84.2199 30.15 77.6849 29.935C73.3999 29.721 71.4929 31.006 65.0009 31.006C58.5079 31.006 56.6019 29.72 52.3169 29.935C45.7819 30.149 45.7179 48.585 45.7179 48.585C45.0629 48.268 44.3589 48.025 43.6319 47.994C42.9049 47.963 42.1489 48.16 41.5999 48.638C40.9909 49.167 40.6949 49.978 40.5739 50.775C40.3299 52.377 40.7129 54.065 41.6249 55.404C42.5359 56.743 43.8819 57.75 45.4609 58.111C48.2449 77.61 64.9999 77.61 64.9999 77.61C64.9999 77.61 81.7549 77.61 84.5409 58.112C86.1199 57.751 87.4659 56.744 88.3769 55.405C89.2879 54.066 89.6709 52.376 89.4279 50.775Z" fill="#F69779"/>
<path d="M85.573 103H83.317C83.317 103 71.034 108.823 65.001 125.981C65.001 125.981 70.147 99.1811 78.487 91.8281L85.573 103Z" fill="#472063"/>
<path d="M76.8662 88.1591C76.8662 88.1591 79.3752 101.469 84.6982 103.92C90.0222 106.371 94.2802 106.208 94.2802 106.208C94.2802 106.208 91.4912 102.917 90.0292 98.7941C88.9032 95.6181 86.8212 92.7791 83.8052 90.9221C82.0112 89.8181 79.7242 88.7971 76.8662 88.1591Z" fill="#9341CC"/>
<path d="M44.4287 103H46.6847C46.6847 103 58.9677 108.823 65.0007 125.981C65.0007 125.981 59.8547 99.1811 51.5147 91.8281L44.4287 103Z" fill="#472063"/>
<path d="M53.1357 88.1591C53.1357 88.1591 50.6267 101.469 45.3037 103.92C39.9807 106.371 35.7217 106.208 35.7217 106.208C35.7217 106.208 38.5107 102.917 39.9727 98.7941C41.0987 95.6181 43.1807 92.7791 46.1967 90.9221C47.9907 89.8181 50.2767 88.7971 53.1357 88.1591Z" fill="#9341CC"/>
<path d="M78.5415 27.86C78.5415 27.86 78.4055 15.702 65.8765 15.446C56.6165 15.446 45.7945 25.557 38.0635 25.941C38.0635 25.941 38.4805 28.754 41.6355 28.757L38.0635 31.0611C38.0635 31.0611 40.4565 32.992 44.4955 31.829L39.3785 34.6451C39.3785 34.6451 44.3585 36.0531 48.7165 34.0051L43.6775 37.588C43.6775 37.588 47.5435 38.274 53.1865 37.733C61.3815 36.948 66.1475 29.141 78.5395 30.09V27.86H78.5415Z" fill="#E44424"/>
<path d="M97.2203 121.24C96.5803 121.61 95.9303 121.96 95.2803 122.3V115.67L97.2203 121.24Z" fill="#472063"/>
<path d="M34.7203 115.67V122.3C34.0703 121.96 33.4203 121.61 32.7803 121.24L34.7203 115.67Z" fill="#472063"/>
<path d="M64.0615 47.6261V59.0671H66.0005C69.3235 59.0671 64.6785 48.9411 64.0615 47.6261Z" fill="#F37A67"/>
<path d="M78.1586 43.1691C75.4786 41.8451 72.5006 41.6491 69.7066 42.7591C68.5236 43.2301 69.0386 45.1651 70.2386 44.6881C72.5276 43.7781 74.9246 43.7971 77.1496 44.8961C78.3016 45.4651 79.3146 43.7401 78.1586 43.1691Z" fill="#E44424"/>
<path d="M75.7456 46.7321C75.1366 45.6761 73.8596 45.7401 73.8596 45.7401C72.8176 45.7401 71.9736 46.5841 71.9736 47.6261C71.9736 48.6681 72.8176 49.5121 73.8596 49.5121C74.0896 49.5121 74.3067 49.4651 74.5107 49.3901L74.5116 49.3951C74.5236 49.3911 74.5326 49.3841 74.5446 49.3791C74.6056 49.3551 74.6626 49.3251 74.7196 49.2951C76.3686 48.5801 76.5446 46.7491 76.5446 46.7491C76.2166 47.0271 75.7456 46.7321 75.7456 46.7321Z" fill="#051733"/>
<path d="M51.8423 43.1691C54.5223 41.8451 57.5013 41.6491 60.2943 42.7591C61.4773 43.2301 60.9623 45.1651 59.7623 44.6881C57.4733 43.7781 55.0763 43.7971 52.8513 44.8961C51.6993 45.4651 50.6863 43.7401 51.8423 43.1691Z" fill="#E44424"/>
<path d="M54.2551 46.7321C54.8641 45.6761 56.1411 45.7401 56.1411 45.7401C57.1831 45.7401 58.0271 46.5841 58.0271 47.6261C58.0271 48.6681 57.1831 49.5121 56.1411 49.5121C55.9111 49.5121 55.6941 49.4651 55.4901 49.3901L55.4891 49.3951C55.4771 49.3911 55.4681 49.3841 55.4561 49.3791C55.3951 49.3551 55.3381 49.3251 55.2801 49.2951C53.6311 48.5801 53.4551 46.7491 53.4551 46.7491C53.7841 47.0271 54.2551 46.7321 54.2551 46.7321Z" fill="#051733"/>
<path d="M58.8545 65.1541C59.5195 67.6361 62.0145 69.484 65.0005 69.484C67.9855 69.484 70.4815 67.6361 71.1465 65.1541H58.8545Z" fill="white"/>
</svg>
