<svg width="130" height="130" viewBox="0 0 130 130" fill="none" xmlns="http://www.w3.org/2000/svg">
<path d="M129.62 65.19C129.62 72.81 128.31 80.12 125.89 86.91C122.2 97.28 115.95 106.43 107.9 113.59C106.06 115.24 104.13 116.77 102.11 118.19C91.5703 125.63 78.7103 129.99 64.8303 129.99C50.9503 129.99 38.0903 125.63 27.5403 118.19C25.5203 116.77 23.5903 115.23 21.7503 113.59C13.7003 106.43 7.45026 97.28 3.77026 86.92C1.35026 80.13 0.0302734 72.81 0.0302734 65.19C0.0302734 29.41 29.0403 0.400024 64.8303 0.400024C100.61 0.400024 129.62 29.41 129.62 65.19Z" fill="#D7EAF1"/>
<path d="M125.891 86.91C122.201 97.28 115.951 106.43 107.901 113.59C106.061 115.24 104.131 116.77 102.111 118.19C91.5705 125.63 78.7105 129.99 64.8305 129.99C50.9505 129.99 38.0905 125.63 27.5405 118.19C25.5205 116.77 23.5905 115.23 21.7505 113.59C13.7005 106.43 7.45051 97.28 3.77051 86.92C7.13051 79.56 13.7105 74.09 21.7005 72.19L37.5205 68.43L41.6205 67.46L45.9405 66.43L46.3805 66.33L54.4505 64.41L63.2005 65.07H63.2105L64.8305 65.19L66.4505 65.07H66.4605L75.2005 64.41L83.2805 66.33L88.0305 67.46L92.1305 68.43L107.961 72.19C115.931 74.09 122.521 79.56 125.891 86.91Z" fill="#BD948F"/>
<path d="M92.1305 68.43C92.1305 76.96 79.9105 83.87 64.8305 83.87C49.7505 83.87 37.5205 76.96 37.5205 68.43L41.6205 67.46L54.4505 64.41L64.8305 65.19L75.2005 64.41L88.0305 67.46L92.1305 68.43Z" fill="#3D3936"/>
<path d="M88.1305 68.43C88.1305 73.84 78.5605 79.87 64.8305 79.87C62.7305 79.87 60.7205 79.73 58.8305 79.46C48.3805 78.04 41.5205 73.01 41.5205 68.43C41.5205 68.11 41.5505 67.78 41.6205 67.46L45.9405 66.43L54.4505 64.41L64.8305 65.19L75.2005 64.41L88.0305 67.46C88.1005 67.78 88.1305 68.11 88.1305 68.43Z" fill="#F69779"/>
<path d="M88.1304 68.43C88.1304 73.84 78.5604 79.87 64.8304 79.87C62.7304 79.87 60.7204 79.73 58.8304 79.46C57.8504 79.01 56.8504 78.45 55.8604 77.78C50.2204 76.55 46.0204 71.95 45.9404 66.43L54.4504 64.41L64.8304 65.19L75.2004 64.41L88.0304 67.46C88.1004 67.78 88.1304 68.11 88.1304 68.43Z" fill="#F37A67"/>
<path d="M84.5803 28.548C82.2683 24.452 77.8453 22.1861 73.7713 20.9331C67.9753 19.1511 61.6873 19.1511 55.8923 20.9331C51.8183 22.1861 47.3953 24.452 45.0833 28.548C40.9033 36.109 41.6153 47.87 41.6153 47.87H41.6053C42.0233 56.3 45.7643 62.666 45.7643 62.666H83.8913C83.8913 62.666 87.6323 56.3 88.0503 47.87C88.0483 47.871 88.7603 36.109 84.5803 28.548Z" fill="#051733"/>
<path d="M89.2589 48.775C89.1379 47.977 88.8419 47.167 88.2329 46.637C87.6839 46.159 86.9279 45.962 86.2009 45.993C85.4739 46.024 84.7699 46.2671 84.1149 46.5841C84.1149 46.5841 84.0509 28.149 77.5159 27.934C73.2309 27.72 71.3239 29.005 64.8319 29.005C58.3399 29.005 56.4329 27.719 52.1479 27.934C45.6129 28.148 45.5489 46.5841 45.5489 46.5841C44.8939 46.2671 44.1899 46.024 43.4629 45.993C42.7359 45.962 41.9799 46.159 41.4309 46.637C40.8219 47.166 40.5269 47.977 40.4049 48.775C40.1609 50.377 40.5449 52.065 41.4559 53.404C42.3669 54.743 43.7129 55.75 45.2919 56.111C45.2989 56.16 45.3089 56.205 45.3169 56.254C44.8889 57.477 44.6449 58.787 44.6449 60.156C44.6449 65.743 48.5199 70.4141 53.7259 71.6571C59.0589 75.6031 64.8329 75.608 64.8329 75.608C64.8329 75.608 70.6079 75.6021 75.9409 71.6571C81.1469 70.4131 85.0219 65.742 85.0219 60.156C85.0219 58.787 84.7779 57.477 84.3499 56.254C84.3569 56.205 84.3669 56.16 84.3739 56.111C85.9529 55.75 87.2989 54.743 88.2099 53.404C89.1189 52.065 89.5019 50.376 89.2589 48.775Z" fill="#F69779"/>
<path d="M107.901 113.59C106.061 115.24 104.131 116.77 102.111 118.19V91.1801C106.871 98.7901 107.191 106.16 107.901 113.59Z" fill="#9C7672"/>
<path d="M27.541 91.1801V118.19C25.521 116.77 23.591 115.23 21.751 113.59C22.461 106.16 22.781 98.7901 27.541 91.1801Z" fill="#9C7672"/>
<path d="M63.8916 44.819V56.26H65.8306C69.1546 56.26 64.5086 46.134 63.8916 44.819Z" fill="#F37A67"/>
<path d="M77.9881 40.362C75.3081 39.038 72.3301 38.842 69.5361 39.952C68.3521 40.423 68.8681 42.358 70.0681 41.881C72.3571 40.971 74.7541 40.99 76.9791 42.089C78.1311 42.658 79.1451 40.933 77.9881 40.362Z" fill="#051733"/>
<path d="M73.6887 46.705C74.7303 46.705 75.5747 45.8606 75.5747 44.819C75.5747 43.7774 74.7303 42.933 73.6887 42.933C72.6471 42.933 71.8027 43.7774 71.8027 44.819C71.8027 45.8606 72.6471 46.705 73.6887 46.705Z" fill="#051733"/>
<path d="M51.6724 40.362C54.3524 39.038 57.3304 38.842 60.1244 39.952C61.3084 40.423 60.7924 42.358 59.5924 41.881C57.3034 40.971 54.9064 40.99 52.6814 42.089C51.5294 42.658 50.5164 40.933 51.6724 40.362Z" fill="#051733"/>
<path d="M55.971 46.705C57.0126 46.705 57.857 45.8606 57.857 44.819C57.857 43.7774 57.0126 42.933 55.971 42.933C54.9294 42.933 54.085 43.7774 54.085 44.819C54.085 45.8606 54.9294 46.705 55.971 46.705Z" fill="#051733"/>
<path d="M58.6846 60.934C59.3496 63.416 61.8446 65.264 64.8306 65.264C67.8166 65.264 70.3116 63.416 70.9766 60.934H58.6846Z" fill="white"/>
<path d="M84.0332 49.7731C84.1462 49.2341 84.5402 48.7621 85.0502 48.5541C85.5062 48.3681 86.0402 48.3941 86.4842 48.6081C86.9282 48.8221 87.2762 49.2181 87.4482 49.6801C87.7172 50.4031 87.5382 51.2561 87.0542 51.8571C86.5712 52.4581 84.8022 53.0611 84.0332 53.1201V49.7731Z" fill="#F37A67"/>
<path d="M45.6282 49.7731C45.5152 49.2341 45.1212 48.7621 44.6102 48.5541C44.1542 48.3681 43.6202 48.3941 43.1762 48.6081C42.7322 48.8221 42.3842 49.2181 42.2122 49.6801C41.9432 50.4031 42.1222 51.2561 42.6062 51.8571C43.0892 52.4581 44.8582 53.0611 45.6272 53.1201L45.6282 49.7731Z" fill="#F37A67"/>
</svg>
