<svg width="130" height="130" viewBox="0 0 130 130" fill="none" xmlns="http://www.w3.org/2000/svg">
<path d="M129.62 65C129.62 80.64 124.08 94.99 114.85 106.18C110.47 111.5 105.25 116.11 99.4003 119.81C98.3603 120.47 97.3103 121.1 96.2303 121.69C86.9303 126.86 76.2203 129.8 64.8303 129.8C53.4403 129.8 42.7303 126.86 33.4303 121.69C32.3503 121.1 31.2903 120.47 30.2603 119.81C24.4003 116.12 19.1903 111.51 14.8103 106.19C5.57027 95 0.0302734 80.65 0.0302734 65C0.0302734 29.21 29.0403 0.200012 64.8303 0.200012C100.61 0.200012 129.62 29.21 129.62 65Z" fill="#D7EAF1"/>
<path d="M114.851 106.18C110.471 111.5 105.251 116.11 99.4005 119.81C98.3605 120.47 97.3106 121.1 96.2306 121.69C86.9306 126.86 76.2205 129.8 64.8305 129.8C53.4405 129.8 42.7305 126.86 33.4305 121.69C32.3505 121.1 31.2906 120.47 30.2606 119.81C24.4006 116.12 19.1905 111.51 14.8105 106.19C16.8005 101.02 21.1405 97.0101 26.6105 95.5001L42.1406 91.2101L44.4806 90.5601L49.7105 89.1201L52.5805 88.3201L54.8305 75.7101L55.0305 74.5601L55.7906 70.3201L56.9506 70.7801L64.8305 73.86L72.7105 70.7801L73.8705 70.3201L74.6306 74.5601L76.6406 85.86L77.0805 88.3201L80.0106 89.1301L85.1606 90.5601L87.5205 91.2101L103.051 95.5001C108.521 97.0101 112.851 101.02 114.851 106.18Z" fill="#0C415B"/>
<path d="M85.1805 91.11C85.1805 97.68 76.0704 103 64.8304 103C53.5904 103 44.4805 97.68 44.4805 91.11V90.5601L49.7104 89.1201L52.5804 88.3201L55.7905 70.3201L64.8304 73.86L73.8705 70.3201L77.0804 88.3201L80.0105 89.1301L85.1605 90.5601C85.1705 90.7401 85.1805 90.93 85.1805 91.11Z" fill="#1D627D"/>
<path d="M80.011 89.1301L79.761 91.11C79.761 93.13 73.9409 97.0001 64.8309 97.0001C55.7209 97.0001 49.9009 93.13 49.9009 91.11L49.7109 89.1201L52.5809 88.3201L54.8309 75.7101L55.791 70.3201L64.8309 73.86L73.8709 70.3201L76.641 85.86L77.0809 88.3201L80.011 89.1301Z" fill="#86201B"/>
<path d="M76.6401 85.86C73.8501 86.69 71.8001 86.6901 71.8001 86.6901C71.8001 86.6901 60.3701 86.6901 54.8301 75.7101L55.7901 70.3201L64.8301 73.86L73.8701 70.3201L76.6401 85.86Z" fill="#611714"/>
<path d="M86.2364 29.911C82.5734 22.838 64.8604 23.193 64.8604 23.193C64.8604 23.193 47.1474 22.838 43.4844 29.911C40.4674 36.122 40.8524 66.611 49.7104 67.473H65.3354H68.8904H80.0104C88.8674 66.611 89.2524 36.122 86.2364 29.911Z" fill="#051733"/>
<path d="M88.2104 55.4C87.3004 56.74 85.9504 57.75 84.3704 58.11C84.2204 59.19 84.0204 60.22 83.7804 61.18C79.7804 77.61 64.8304 77.61 64.8304 77.61C64.8304 77.61 49.8804 77.61 45.8804 61.18C45.6404 60.22 45.4404 59.19 45.2904 58.11C43.7104 57.75 42.3604 56.74 41.4504 55.4C40.5404 54.06 40.1604 52.38 40.4004 50.77C40.5204 49.98 40.8204 49.17 41.4304 48.64C41.9804 48.16 42.7304 47.96 43.4604 47.99C44.1504 48.02 44.8104 48.24 45.4404 48.54C45.4804 48.56 45.5104 48.57 45.5504 48.59C45.5504 48.59 45.5504 47.15 45.7104 45.06C46.0904 39.7 47.4404 30.09 52.1504 29.94C56.4304 29.72 58.3404 31.01 64.8304 31.01C71.3204 31.01 73.2304 29.72 77.5104 29.94C82.2204 30.09 83.5704 39.7 83.9504 45.06C84.1104 47.15 84.1104 48.59 84.1104 48.59C84.1504 48.57 84.1804 48.56 84.2204 48.54C84.8504 48.24 85.5104 48.02 86.2004 47.99C86.9304 47.96 87.6804 48.16 88.2304 48.64C88.8404 49.17 89.1404 49.98 89.2604 50.77C89.5004 52.38 89.1204 54.06 88.2104 55.4Z" fill="#86201B"/>
<path d="M84.2204 48.5401L84.0804 58.1101L83.7804 61.1801C79.7804 77.6101 64.8304 77.61 64.8304 77.61C64.8304 77.61 49.8804 77.6101 45.8804 61.1801L45.5804 58.1101L45.4404 48.5401C45.4804 48.5601 45.5104 48.5701 45.5504 48.5901C45.5504 48.5901 45.5504 47.1501 45.7104 45.0601C46.5604 46.3001 48.7704 50.4201 48.7704 59.7201C48.7704 59.7201 52.2804 60.5801 53.7604 63.8101C55.2504 67.0401 55.6304 73.86 64.8304 73.86C74.0304 73.86 74.4104 67.0401 75.9004 63.8101C77.3804 60.5801 80.8904 59.7201 80.8904 59.7201C80.8904 50.4201 83.1004 46.3001 83.9504 45.0601C84.1104 47.1501 84.1104 48.5901 84.1104 48.5901C84.1504 48.5701 84.1804 48.5601 84.2204 48.5401Z" fill="#051733"/>
<path d="M67.6465 58.1001C66.0015 58.0831 65.2095 58.739 64.8305 59.314C64.4515 58.74 63.6595 58.0831 62.0145 58.1001C59.8355 58.1231 54.6885 60.1471 54.6885 60.1471H64.4925H65.1685H74.9725C74.9725 60.1471 69.8245 58.1231 67.6465 58.1001Z" fill="#051733"/>
<path d="M63.8916 45.937V57.378H65.8306C69.1546 57.378 64.5086 47.252 63.8916 45.937Z" fill="#611714"/>
<path d="M77.9887 41.48C75.3087 40.156 72.3297 39.96 69.5367 41.07C68.3537 41.541 68.8687 43.476 70.0687 42.999C72.3577 42.089 74.7547 42.108 76.9797 43.207C78.1317 43.776 79.1447 42.051 77.9887 41.48Z" fill="#051733"/>
<path d="M73.6897 47.823C74.7313 47.823 75.5757 46.9786 75.5757 45.937C75.5757 44.8954 74.7313 44.051 73.6897 44.051C72.6481 44.051 71.8037 44.8954 71.8037 45.937C71.8037 46.9786 72.6481 47.823 73.6897 47.823Z" fill="#051733"/>
<path d="M51.6724 41.48C54.3524 40.156 57.3314 39.96 60.1244 41.07C61.3074 41.541 60.7924 43.476 59.5924 42.999C57.3034 42.089 54.9064 42.108 52.6814 43.207C51.5294 43.776 50.5164 42.051 51.6724 41.48Z" fill="#051733"/>
<path d="M55.971 47.823C57.0126 47.823 57.857 46.9786 57.857 45.937C57.857 44.8954 57.0126 44.051 55.971 44.051C54.9294 44.051 54.085 44.8954 54.085 45.937C54.085 46.9786 54.9294 47.823 55.971 47.823Z" fill="#051733"/>
<path d="M58.6846 62.847C59.3496 65.329 61.8446 67.177 64.8306 67.177C67.8166 67.177 70.3116 65.329 70.9766 62.847H58.6846Z" fill="white"/>
<path d="M99.4005 119.81C98.3605 120.47 97.3105 121.1 96.2305 121.69L97.5105 108.9L99.4005 119.81Z" fill="#051733"/>
<path d="M33.4307 121.69C32.3507 121.1 31.2907 120.47 30.2607 119.81L32.1507 108.9L33.4307 121.69Z" fill="#051733"/>
</svg>
