<svg width="130" height="130" viewBox="0 0 130 130" fill="none" xmlns="http://www.w3.org/2000/svg">
<path d="M129.97 64.81C129.97 80.56 124.35 95 115 106.22C111.22 110.77 106.82 114.8 101.93 118.16C100.86 118.91 99.7699 119.62 98.6499 120.29C88.9199 126.18 77.5199 129.57 65.3299 129.6H65.1699C64.5499 129.6 63.9399 129.59 63.3299 129.57C51.0599 129.23 39.6499 125.48 30.0099 119.23C28.9899 118.58 27.9999 117.89 27.0199 117.18C22.1599 113.64 17.8199 109.43 14.1199 104.7C5.50988 93.7 0.379883 79.86 0.379883 64.81C0.379883 29.02 29.3899 0.0100098 65.1699 0.0100098C100.96 0.0100098 129.97 29.02 129.97 64.81Z" fill="#D7EAF1"/>
<path d="M115 106.22C111.22 110.77 106.82 114.8 101.93 118.16C100.86 118.91 99.7701 119.62 98.6501 120.29C88.9201 126.18 77.5201 129.57 65.3301 129.6H65.1701C64.5501 129.6 63.9401 129.59 63.3301 129.57C51.0601 129.23 39.6501 125.48 30.0101 119.23C28.9901 118.58 28.0001 117.89 27.0201 117.18C22.1601 113.64 17.8201 109.43 14.1201 104.7C16.0201 99.29 20.4601 95.06 26.1101 93.5L41.6401 89.21L46.5501 87.85L52.0801 86.32L53.7801 76.79V76.78L54.2801 74.01L54.5301 72.55L55.0201 69.85L55.2901 68.32L63.5701 71.56L64.3301 71.86L65.0901 71.56L73.3701 68.32L73.6401 69.85L74.1301 72.55L74.8801 76.78V76.79L75.5401 80.51L76.5801 86.32L82.1101 87.85L87.0201 89.21L102.55 93.5C108.72 95.2 113.45 100.09 115 106.22Z" fill="#4749D6"/>
<path d="M65.3301 99.72V129.6H65.1701C64.5501 129.6 63.9401 129.59 63.3301 129.57V99.72C63.3301 99.14 63.7801 98.66 64.3301 98.66C64.8801 98.66 65.3301 99.14 65.3301 99.72Z" fill="#3537A1"/>
<path d="M76.5801 86.32C76.5801 86.32 75.4001 91.09 73.9201 93.23C71.5601 96.66 70.2301 95.36 64.3301 101.55C57.6401 98.51 52.0801 86.32 52.0801 86.32L54.2801 74.01L55.2901 68.32L64.3301 71.86L73.3701 68.32L75.5401 80.51L76.5801 86.32Z" fill="#F69779"/>
<path d="M75.5403 80.51C72.0603 81.83 69.2903 81.83 69.2903 81.83C69.2903 81.83 60.1803 81.83 54.2803 74.01L55.2903 68.32L64.3303 71.86L73.3703 68.32L75.5403 80.51Z" fill="#F37A67"/>
<path d="M74.7188 76.618L77.5847 95.317L86.3317 98.66L79.8138 81.962L74.7188 76.618Z" fill="#7375F5"/>
<path d="M75.7201 83.15L64.3301 101.55L77.5851 95.317L75.7201 83.15Z" fill="#3537A1"/>
<path d="M53.9411 76.618L51.0751 95.317L42.3281 98.66L48.8461 81.962L53.9411 76.618Z" fill="#7375F5"/>
<path d="M52.9402 83.15L64.3302 101.55L51.0752 95.317L52.9402 83.15Z" fill="#3537A1"/>
<path d="M88.8324 42.863C88.5084 42.4 85.9784 44.938 85.9784 44.938C85.9784 44.938 88.9394 40.318 88.2924 39.624C87.6454 38.931 85.7374 41.222 85.7324 41.228C85.7374 41.22 87.9684 37.309 87.6444 36.385C87.3204 35.46 85.2584 37.565 85.2584 37.565C85.2584 37.565 87.2054 34.252 86.7404 32.555C86.2754 30.858 84.2884 33.185 84.2884 33.185C84.2884 33.185 85.5944 28.287 84.8494 27.917C84.1034 27.546 82.7484 29.076 82.7484 29.076C82.7484 29.076 82.7894 24.818 82.1424 24.123C81.4954 23.429 80.0924 24.123 80.0924 24.123C80.0924 24.123 80.2004 20.768 79.4344 20.305C78.6684 19.842 76.2084 20.999 76.2084 20.999C76.2084 20.999 76.1004 18.222 74.9134 18.165C73.7264 18.107 72.2164 19.599 72.2164 19.599C72.2164 19.599 71.5694 16.372 70.5114 16.256C69.4544 16.14 67.7924 18.165 67.7924 18.165C66.7134 15.331 64.3304 14.122 64.3304 14.122C64.3304 14.122 61.9474 15.331 60.8684 18.165C60.8684 18.165 59.2064 16.14 58.1494 16.256C57.0924 16.372 56.4444 19.599 56.4444 19.599C56.4444 19.599 54.9334 18.107 53.7474 18.165C52.5604 18.223 52.4524 20.999 52.4524 20.999C52.4524 20.999 49.9924 19.842 49.2264 20.305C48.4604 20.768 48.5684 24.123 48.5684 24.123C48.5684 24.123 47.1654 23.429 46.5184 24.123C45.8714 24.817 45.9124 29.076 45.9124 29.076C45.9124 29.076 44.5574 27.547 43.8114 27.917C43.0654 28.288 44.3724 33.185 44.3724 33.185C44.3724 33.185 42.3864 30.858 41.9204 32.555C41.4554 34.252 43.4024 37.565 43.4024 37.565C43.4024 37.565 41.3394 35.46 41.0164 36.385C40.6934 37.309 42.9234 41.219 42.9284 41.228C42.9224 41.221 41.0154 38.931 40.3684 39.624C39.7214 40.318 42.6824 44.938 42.6824 44.938C42.6824 44.938 40.1524 42.4 39.8284 42.863C39.5384 43.278 42.1064 47.314 42.6394 48.142C42.6504 49.016 42.6774 49.529 42.6774 49.529L46.7414 54.154L64.3304 51.76L81.9194 54.153L85.9834 49.528C85.9834 49.528 86.0104 49.015 86.0214 48.141C86.5544 47.314 89.1224 43.278 88.8324 42.863Z" fill="#051733"/>
<path d="M87.7104 53.4C86.8004 54.74 85.4504 55.75 83.8704 56.11C81.0904 75.61 64.3304 75.61 64.3304 75.61C64.3304 75.61 47.5704 75.61 44.7904 56.11C43.2104 55.75 41.8604 54.74 40.9504 53.4C40.0404 52.06 39.6604 50.38 39.9004 48.77C40.0204 47.98 40.3204 47.17 40.9304 46.64C41.4804 46.16 42.2304 45.96 42.9604 45.99C43.6904 46.02 44.3904 46.27 45.0504 46.59C45.0504 46.59 45.1104 28.15 51.6504 27.94C55.9304 27.72 57.8404 29.01 64.3304 29.01C70.8204 29.01 72.7304 27.72 77.0104 27.94C83.5504 28.15 83.6104 46.59 83.6104 46.59C84.2704 46.27 84.9704 46.02 85.7004 45.99C86.4304 45.96 87.1804 46.16 87.7304 46.64C88.3404 47.17 88.6404 47.98 88.7604 48.77C89.0004 50.38 88.6204 52.06 87.7104 53.4Z" fill="#F69779"/>
<path d="M64.33 71.52C64.33 71.52 64.05 71.55 63.57 71.56L64.33 71.86L65.09 71.56C64.61 71.55 64.33 71.52 64.33 71.52ZM83.76 52.06L83.61 46.59C83.61 46.59 81.84 49.39 80.75 53.99C80.35 55.65 80.04 57.55 79.94 59.64C79.94 59.64 73.48 56.98 64.33 56.98C59.76 56.98 55.85 57.64 53.09 58.31C50.34 58.98 48.72 59.64 48.72 59.64C48.62 57.55 48.31 55.65 47.91 53.99C46.82 49.39 45.05 46.59 45.05 46.59L44.9 52.06L44.79 56.11C46.07 65.09 50.32 69.94 54.53 72.55C54.53 72.55 54.53 72.56 54.54 72.56C59.46 75.61 64.33 75.61 64.33 75.61C64.33 75.61 69.2 75.61 74.12 72.56C74.13 72.56 74.13 72.55 74.13 72.55C78.34 69.94 82.59 65.09 83.87 56.11L83.76 52.06ZM75.26 67.33C75.09 68.42 74.49 69.24 73.64 69.85C71.23 71.58 66.84 71.62 65.09 71.56C64.61 71.55 64.33 71.52 64.33 71.52C64.33 71.52 64.05 71.55 63.57 71.56C61.82 71.62 57.43 71.58 55.02 69.85C54.17 69.24 53.57 68.42 53.4 67.33C52.65 62.27 56.61 59.24 64.33 59.53C72.05 59.24 76.01 62.27 75.26 67.33Z" fill="#051733"/>
<path d="M101.93 118.16C100.86 118.91 99.7704 119.62 98.6504 120.29V107.26L101.93 118.16Z" fill="#3537A1"/>
<path d="M30.0105 107.26V119.23C28.9905 118.58 28.0005 117.89 27.0205 117.18L30.0105 107.26Z" fill="#3537A1"/>
<path d="M63.3916 44.566V56.007H65.3306C68.6536 56.007 64.0086 45.881 63.3916 44.566Z" fill="#F37A67"/>
<path d="M77.4887 40.109C74.8087 38.785 71.8297 38.589 69.0367 39.699C67.8537 40.17 68.3687 42.105 69.5687 41.628C71.8577 40.718 74.2547 40.737 76.4797 41.836C77.6317 42.405 78.6457 40.68 77.4887 40.109Z" fill="#051733"/>
<path d="M73.1897 46.452C74.2313 46.452 75.0757 45.6076 75.0757 44.566C75.0757 43.5244 74.2313 42.68 73.1897 42.68C72.1481 42.68 71.3037 43.5244 71.3037 44.566C71.3037 45.6076 72.1481 46.452 73.1897 46.452Z" fill="#051733"/>
<path d="M51.1724 40.109C53.8524 38.785 56.8314 38.589 59.6244 39.699C60.8074 40.17 60.2924 42.105 59.0924 41.628C56.8034 40.718 54.4064 40.737 52.1814 41.836C51.0294 42.405 50.0164 40.68 51.1724 40.109Z" fill="#051733"/>
<path d="M55.471 46.452C56.5126 46.452 57.357 45.6076 57.357 44.566C57.357 43.5244 56.5126 42.68 55.471 42.68C54.4294 42.68 53.585 43.5244 53.585 44.566C53.585 45.6076 54.4294 46.452 55.471 46.452Z" fill="#051733"/>
<path d="M58.1855 63.476C58.8505 65.958 61.3456 67.806 64.3316 67.806C67.3166 67.806 69.8125 65.958 70.4765 63.476H58.1855Z" fill="white"/>
</svg>
