<svg width="130" height="130" viewBox="0 0 130 130" fill="none" xmlns="http://www.w3.org/2000/svg">
<path d="M129.8 65.19C129.8 81.48 123.79 96.38 113.85 107.77C112.66 109.14 111.41 110.46 110.1 111.72C108.8 112.98 107.45 114.18 106.05 115.33C102.93 117.9 99.5602 120.17 95.9802 122.12C94.8702 122.73 93.7502 123.3 92.6002 123.83C84.2302 127.78 74.8702 129.99 65.0002 129.99C55.1302 129.99 45.7702 127.78 37.4002 123.83C36.2502 123.3 35.1302 122.73 34.0202 122.12C30.4402 120.17 27.0702 117.9 23.9502 115.33C22.5502 114.18 21.2002 112.98 19.9002 111.72C18.5902 110.46 17.3402 109.14 16.1502 107.77C6.21019 96.38 0.200195 81.48 0.200195 65.19C0.200195 29.41 29.2102 0.400024 65.0002 0.400024C100.79 0.400024 129.8 29.41 129.8 65.19Z" fill="#D7EAF1"/>
<path d="M113.85 107.77C112.66 109.14 111.41 110.46 110.1 111.72C108.8 112.98 107.45 114.18 106.05 115.33H23.9504C22.5504 114.18 21.2004 112.98 19.9004 111.72C18.5904 110.46 17.3404 109.14 16.1504 107.77C17.3504 103.09 19.9604 97.25 25.6804 93.36C27.3904 92.2 28.8704 90.6401 30.1504 88.7901C36.0404 80.3601 37.8404 65.8801 38.5604 55.3101C38.6904 53.4201 38.7904 51.66 38.8704 50.08C39.2204 43.18 40.2304 33.83 45.0304 26.7701C48.8104 21.2 54.9604 17.0601 65.0004 16.7001C87.7404 17.5201 90.5104 37.72 91.1304 50.08C91.7504 62.45 93.4004 85.94 104.32 93.36C110.04 97.25 112.65 103.09 113.85 107.77Z" fill="#051733"/>
<path d="M110.1 111.72C108.8 112.98 107.45 114.18 106.05 115.33C102.93 117.9 99.5604 120.17 95.9804 122.12C94.8704 122.73 93.7504 123.3 92.6004 123.83C84.2304 127.78 74.8704 129.99 65.0004 129.99C55.1304 129.99 45.7704 127.78 37.4004 123.83C36.2504 123.3 35.1304 122.73 34.0204 122.12C30.4404 120.17 27.0704 117.9 23.9504 115.33C22.5504 114.18 21.2004 112.98 19.9004 111.72C22.8004 107.33 26.8604 103.8 31.6604 101.54H31.6704C32.3104 101.23 32.9704 100.95 33.6404 100.69L39.6104 98.3901C40.8504 97.9101 42.0504 97.3401 43.1804 96.6901C44.2504 96.0701 45.2704 95.3801 46.2404 94.6201C46.4304 94.4701 46.6204 94.3201 46.8104 94.1601C46.9804 94.0201 47.1404 93.8901 47.3004 93.7401C47.5204 93.5501 47.7404 93.3501 47.9504 93.1501C48.1004 93.0201 48.2404 92.8901 48.3804 92.7501C48.5204 92.6101 48.6604 92.47 48.7904 92.33C49.1204 91.99 49.4404 91.6401 49.7504 91.2901C49.9104 91.1101 50.0704 90.9301 50.2104 90.7501C50.3604 90.5601 50.5004 90.3801 50.6504 90.1901C50.8104 90.0101 50.9504 89.8201 51.0804 89.6301C51.2304 89.4401 51.3604 89.25 51.4904 89.05V89.0401C51.6004 88.8801 51.7204 88.7301 51.8204 88.5701C51.9904 88.3201 52.1504 88.0701 52.3004 87.8101C52.4804 87.5201 52.6504 87.2301 52.8204 86.9301C52.8504 86.8901 52.8704 86.84 52.8904 86.8C53.0904 86.45 53.2704 86.1001 53.4404 85.7401C54.3904 83.8201 55.1004 81.7701 55.5504 79.6201L55.8104 78.3801L56.8304 73.4601L57.8904 68.3201H72.1104L73.1704 73.4501L74.4504 79.6201C74.5304 80.0201 74.6204 80.4201 74.7304 80.8101C74.8004 81.1001 74.8804 81.3901 74.9704 81.6801C75.0004 81.7901 75.0404 81.8901 75.0704 81.9901C75.0804 82.0701 75.1104 82.1401 75.1404 82.2201C75.2304 82.5301 75.3404 82.8301 75.4504 83.1301C75.5804 83.5101 75.7204 83.8801 75.8904 84.2501C76.0104 84.5801 76.1604 84.9001 76.3104 85.2201C76.6004 85.8601 76.9204 86.4901 77.2804 87.1001C77.4404 87.4001 77.6204 87.7001 77.8204 88.0001C77.9704 88.2601 78.1304 88.5101 78.3104 88.7601C78.3704 88.8601 78.4404 88.9501 78.5004 89.0401C78.6504 89.2801 78.8204 89.5101 79.0004 89.7401C79.4204 90.3001 79.8604 90.8401 80.3204 91.3701C80.5404 91.6301 80.7804 91.8901 81.0304 92.1401C81.2604 92.4001 81.5104 92.6501 81.7704 92.8901C82.0204 93.1401 82.2804 93.3801 82.5404 93.6001C82.7304 93.7701 82.9204 93.9401 83.1204 94.1001C83.3104 94.2601 83.5004 94.4201 83.7004 94.5701C83.7304 94.6001 83.7604 94.6201 83.7904 94.6401C84.0104 94.8101 84.2204 94.9801 84.4404 95.1301C85.2004 95.7001 85.9904 96.2101 86.8204 96.6901C87.9504 97.3401 89.1504 97.9101 90.3904 98.3901L96.3604 100.69C102.02 102.87 106.81 106.74 110.1 111.72Z" fill="#F03832"/>
<path d="M86.8207 96.6901C83.2407 102.54 76.6607 109.15 65.0007 110.05C53.3407 109.15 46.7607 102.54 43.1807 96.6901C49.5007 93.0601 54.0407 86.8801 55.5507 79.6201L55.8107 78.3801L57.8907 68.3201H72.1107L74.4507 79.6201C74.7807 81.2201 75.2607 82.7701 75.8907 84.2501C78.0507 89.4801 81.9007 93.8601 86.8207 96.6901Z" fill="#F69779"/>
<path d="M75.8906 84.2501C72.6606 85.3801 70.1606 85.3801 70.1606 85.3801C70.1606 85.3801 61.7005 85.3801 55.8105 78.3801L57.8905 68.3201H72.1105L74.4506 79.6201C74.7806 81.2201 75.2606 82.7701 75.8906 84.2501Z" fill="#F37A67"/>
<path d="M84.1223 56.304C83.8853 59.664 83.0053 62.9761 81.2933 65.8771C75.5483 75.6101 65.0003 75.61 65.0003 75.61C65.0003 75.61 48.2403 75.61 45.4603 56.11C43.8803 55.75 42.5303 54.74 41.6203 53.4C40.7103 52.06 40.3303 50.38 40.5703 48.77C40.6903 47.98 40.9903 47.1701 41.6003 46.6401C42.1503 46.1601 42.9003 45.96 43.6303 45.99C44.3603 46.02 45.0603 46.27 45.7203 46.59C45.7203 46.59 45.7803 28.15 52.3203 27.94C56.6003 27.72 58.5103 29.0101 65.0003 29.0101C71.4903 29.0101 73.4003 27.72 77.6803 27.94C84.2203 28.15 84.2803 46.59 84.2803 46.59C84.2803 46.59 84.4993 50.944 84.1223 56.304Z" fill="#F69779"/>
<path d="M54.3304 98.39C49.3204 102.32 37.5004 105.5 30.7504 101L30.1504 88.79C36.0404 80.36 37.8404 65.88 38.5604 55.31C38.6904 53.42 38.7904 51.66 38.8704 50.08C39.2204 43.18 40.2304 33.83 45.0304 26.77C46.9604 27.33 48.7904 27.91 48.7904 27.91C48.7904 27.91 46.9404 38.34 48.7904 44.93C50.6504 51.52 49.8204 61 48.7904 70.28C47.7604 79.55 54.3304 98.39 54.3304 98.39Z" fill="#051733"/>
<path d="M95.9806 122.12C94.8706 122.73 93.7506 123.3 92.6006 123.83V110.16L94.0606 115.33L95.9806 122.12Z" fill="#BF2D28"/>
<path d="M37.4005 110.16V123.83C36.2505 123.3 35.1305 122.73 34.0205 122.12L35.9405 115.33L37.4005 110.16Z" fill="#BF2D28"/>
<path d="M64.0615 47.837V59.278H66.0005C69.3235 59.277 64.6785 49.151 64.0615 47.837Z" fill="#F37A67"/>
<path d="M78.1586 43.379C75.4786 42.055 72.5006 41.859 69.7066 42.969C68.5236 43.44 69.0386 45.3751 70.2386 44.8981C72.5276 43.9881 74.9246 44.007 77.1496 45.106C78.3016 45.675 79.3146 43.951 78.1586 43.379Z" fill="#051733"/>
<path d="M75.7456 46.9431C75.1366 45.8871 73.8596 45.9511 73.8596 45.9511C72.8176 45.9511 71.9736 46.7961 71.9736 47.8371C71.9736 48.8791 72.8176 49.7231 73.8596 49.7231C74.0896 49.7231 74.3067 49.6761 74.5107 49.6011L74.5116 49.6061C74.5236 49.6021 74.5326 49.5951 74.5446 49.5901C74.6056 49.5661 74.6626 49.5361 74.7206 49.5061C76.3696 48.7911 76.5457 46.9601 76.5457 46.9601C76.2167 47.2371 75.7456 46.9431 75.7456 46.9431Z" fill="#051733"/>
<path d="M51.8423 43.379C54.5223 42.055 57.5013 41.859 60.2943 42.969C61.4773 43.44 60.9623 45.3751 59.7623 44.8981C57.4733 43.9881 55.0763 44.007 52.8513 45.106C51.6993 45.675 50.6863 43.951 51.8423 43.379Z" fill="#051733"/>
<path d="M54.2551 46.9431C54.8641 45.8871 56.1411 45.9511 56.1411 45.9511C57.1831 45.9511 58.0271 46.7961 58.0271 47.8371C58.0271 48.8791 57.1831 49.7231 56.1411 49.7231C55.9111 49.7231 55.6941 49.6761 55.4901 49.6011L55.4891 49.6061C55.4771 49.6021 55.4681 49.5951 55.4561 49.5901C55.3951 49.5661 55.3381 49.5361 55.2801 49.5061C53.6311 48.7911 53.4551 46.9601 53.4551 46.9601C53.7841 47.2371 54.2551 46.9431 54.2551 46.9431Z" fill="#051733"/>
<path d="M58.8545 63.462C59.5195 65.944 62.0145 67.792 65.0005 67.792C67.9855 67.792 70.4815 65.944 71.1465 63.462H58.8545Z" fill="white"/>
</svg>
